<svg width="19" height="26" viewBox="0 0 19 26" fill="none" xmlns="http://www.w3.org/2000/svg">
<path d="M8.52368 24.9679C1.33445 14.4845 0 13.4086 0 9.55575C0 4.27824 4.25328 0 9.5 0C14.7467 0 19 4.27824 19 9.55575C19 13.4086 17.6655 14.4845 10.4763 24.9679C10.0045 25.6534 8.99541 25.6534 8.52368 24.9679ZM9.5 13.5373C11.6861 13.5373 13.4583 11.7547 13.4583 9.55575C13.4583 7.35678 11.6861 5.57419 9.5 5.57419C7.31386 5.57419 5.54167 7.35678 5.54167 9.55575C5.54167 11.7547 7.31386 13.5373 9.5 13.5373Z" fill="white"/>
</svg>
