<svg width="114" height="21" viewBox="0 0 114 21" fill="none" xmlns="http://www.w3.org/2000/svg">
<path d="M0.973099 7.03383L6.16169 6.16031L8.48075 0.730508M0.973099 7.03383L3.70508 19.5374L4.59288 13.5707L4.62727 13.3396L4.47207 13.165L0.718247 8.94087L0.718116 8.94072C0.510752 8.70757 0.451825 8.36996 0.538194 8.06262C0.625007 7.75369 0.82778 7.56513 1.05569 7.52696L1.05611 7.52689L6.2447 6.65337L6.51417 6.608L6.62151 6.35669L8.94049 0.927071M0.973099 7.03383C0.0426336 7.18967 -0.330263 8.51431 0.344502 9.27301M0.973099 7.03383L0.344502 9.27301M8.48075 0.730508L8.94049 0.927071M8.48075 0.730508L8.94057 0.926895L8.94049 0.927071M8.48075 0.730508L3.70503 19.5377C3.65028 19.908 3.79338 20.2047 3.98533 20.3645C4.17067 20.5187 4.39024 20.5465 4.59725 20.4198L4.59888 20.4188L9.24056 17.6013L9.5 17.4439L9.75944 17.6013L14.4011 20.4188L14.4012 20.4188C14.6088 20.5449 14.8295 20.5168 15.015 20.3626C15.2068 20.2033 15.3498 19.9076 15.2949 19.5374L14.4071 13.5707L14.3727 13.3396L14.5279 13.165L18.2818 8.94087L18.2819 8.94072C18.4892 8.70757 18.5482 8.36996 18.4618 8.06262C18.375 7.75369 18.1722 7.56513 17.9443 7.52696L17.9439 7.52689L12.7553 6.65337L12.4858 6.608L12.3785 6.35669L10.0598 0.927757C10.0598 0.927733 10.0598 0.927709 10.0598 0.927685C9.92534 0.614627 9.69252 0.500736 9.49943 0.500004C9.30835 0.499279 9.07645 0.609085 8.94049 0.927071M0.344502 9.27301L4.09833 13.4971L0.344502 9.27301Z" fill="#EECB14" stroke="black"/>
<path d="M48.4731 7.03383L53.6617 6.16031L55.9807 0.730508M48.4731 7.03383L51.2051 19.5374L52.0929 13.5707L52.1273 13.3396L51.9721 13.165L48.2182 8.94087L48.2181 8.94072C48.0108 8.70757 47.9518 8.36996 48.0382 8.06262C48.125 7.75369 48.3278 7.56513 48.5557 7.52696L48.5561 7.52689L53.7447 6.65337L54.0142 6.608L54.1215 6.35669L56.4405 0.927071M48.4731 7.03383C47.5426 7.18967 47.1697 8.51431 47.8445 9.27301M48.4731 7.03383L47.8445 9.27301M55.9807 0.730508L56.4405 0.927071M55.9807 0.730508L56.4406 0.926895L56.4405 0.927071M55.9807 0.730508L51.205 19.5377C51.1503 19.908 51.2934 20.2047 51.4853 20.3645C51.6707 20.5187 51.8902 20.5465 52.0973 20.4198L52.0989 20.4188L56.7406 17.6013L57 17.4439L57.2594 17.6013L61.9011 20.4188L61.9012 20.4188C62.1088 20.5449 62.3295 20.5168 62.515 20.3626C62.7068 20.2033 62.8498 19.9076 62.7949 19.5374L61.9071 13.5707L61.8727 13.3396L62.0279 13.165L65.7818 8.94087L65.7819 8.94072C65.9892 8.70757 66.0482 8.36996 65.9618 8.06262C65.875 7.75369 65.6722 7.56513 65.4443 7.52696L65.4439 7.52689L60.2553 6.65337L59.9858 6.608L59.8785 6.35669L57.5598 0.927757C57.5598 0.927733 57.5598 0.927709 57.5598 0.927685C57.4253 0.614627 57.1925 0.500736 56.9994 0.500004C56.8083 0.499279 56.5764 0.609085 56.4405 0.927071M47.8445 9.27301L51.5983 13.4971L47.8445 9.27301Z" fill="#EECB14" stroke="black"/>
<path d="M24.7231 7.03383L29.9117 6.16031L32.2307 0.730508M24.7231 7.03383L27.4551 19.5374L28.3429 13.5707L28.3773 13.3396L28.2221 13.165L24.4682 8.94087L24.4681 8.94072C24.2608 8.70757 24.2018 8.36996 24.2882 8.06262C24.375 7.75369 24.5778 7.56513 24.8057 7.52696L24.8061 7.52689L29.9947 6.65337L30.2642 6.608L30.3715 6.35669L32.6905 0.927071M24.7231 7.03383C23.7926 7.18967 23.4197 8.51431 24.0945 9.27301M24.7231 7.03383L24.0945 9.27301M32.2307 0.730508L32.6905 0.927071M32.2307 0.730508L32.6906 0.926895L32.6905 0.927071M32.2307 0.730508L27.455 19.5377C27.4003 19.908 27.5434 20.2047 27.7353 20.3645C27.9207 20.5187 28.1402 20.5465 28.3473 20.4198L28.3489 20.4188L32.9906 17.6013L33.25 17.4439L33.5094 17.6013L38.1511 20.4188L38.1512 20.4188C38.3588 20.5449 38.5795 20.5168 38.765 20.3626C38.9568 20.2033 39.0998 19.9076 39.0449 19.5374L38.1571 13.5707L38.1227 13.3396L38.2779 13.165L42.0318 8.94087L42.0319 8.94072C42.2392 8.70757 42.2982 8.36996 42.2118 8.06262C42.125 7.75369 41.9222 7.56513 41.6943 7.52696L41.6939 7.52689L36.5053 6.65337L36.2358 6.608L36.1285 6.35669L33.8098 0.927757C33.8098 0.927733 33.8098 0.927709 33.8098 0.927685C33.6753 0.614627 33.4425 0.500736 33.2494 0.500004C33.0583 0.499279 32.8264 0.609085 32.6905 0.927071M24.0945 9.27301L27.8483 13.4971L24.0945 9.27301Z" fill="#EECB14" stroke="black"/>
</svg>
