<svg width="22" height="23" viewBox="0 0 22 23" fill="none" xmlns="http://www.w3.org/2000/svg">
<path d="M0.630045 15.8065H13.5128C13.5956 15.8066 13.6775 15.7902 13.754 15.7584C13.8305 15.7266 13.8999 15.6799 13.9585 15.621C14.017 15.5622 14.0634 15.4923 14.095 15.4154C14.1267 15.3384 14.1429 15.256 14.1429 15.1728V13.2789C14.1429 13.1957 14.1267 13.1133 14.095 13.0363C14.0634 12.9594 14.017 12.8895 13.9585 12.8307C13.8999 12.7718 13.8305 12.7251 13.754 12.6933C13.6775 12.6615 13.5956 12.6451 13.5128 12.6452H0.630045C0.547288 12.6451 0.46533 12.6615 0.388861 12.6933C0.312391 12.7251 0.24291 12.7718 0.184392 12.8307C0.125874 12.8895 0.0794678 12.9594 0.047828 13.0363C0.0161881 13.1133 -6.43864e-05 13.1957 1.91693e-07 13.2789V15.1728C-6.43864e-05 15.256 0.0161881 15.3384 0.047828 15.4154C0.0794678 15.4923 0.125874 15.5622 0.184392 15.621C0.24291 15.6799 0.312391 15.7266 0.388861 15.7584C0.46533 15.7902 0.547288 15.8066 0.630045 15.8065ZM0.630045 3.1613H13.5128C13.5956 3.16137 13.6775 3.14502 13.754 3.11319C13.8305 3.08137 13.8999 3.03469 13.9585 2.97583C14.017 2.91697 14.0634 2.84708 14.095 2.77016C14.1267 2.69324 14.1429 2.6108 14.1429 2.52756V0.633742C14.1429 0.5505 14.1267 0.468061 14.095 0.391143C14.0634 0.314224 14.017 0.244335 13.9585 0.185474C13.8999 0.126613 13.8305 0.0799341 13.754 0.0481086C13.6775 0.016283 13.5956 -6.47643e-05 13.5128 1.92819e-07H0.630045C0.547288 -6.47643e-05 0.46533 0.016283 0.388861 0.0481086C0.312391 0.0799341 0.24291 0.126613 0.184392 0.185474C0.125874 0.244335 0.0794678 0.314224 0.047828 0.391143C0.0161881 0.468061 -6.43864e-05 0.5505 1.91693e-07 0.633742V2.52756C-6.43864e-05 2.6108 0.0161881 2.69324 0.047828 2.77016C0.0794678 2.84708 0.125874 2.91697 0.184392 2.97583C0.24291 3.03469 0.312391 3.08137 0.388861 3.11319C0.46533 3.14502 0.547288 3.16137 0.630045 3.1613ZM21.2143 6.3226H0.785714C0.57733 6.3226 0.377481 6.40587 0.230131 6.55408C0.0827806 6.7023 1.91693e-07 6.90332 1.91693e-07 7.11293V8.69358C1.91693e-07 8.90319 0.0827806 9.10421 0.230131 9.25242C0.377481 9.40064 0.57733 9.4839 0.785714 9.4839H21.2143C21.4227 9.4839 21.6225 9.40064 21.7699 9.25242C21.9172 9.10421 22 8.90319 22 8.69358V7.11293C22 6.90332 21.9172 6.7023 21.7699 6.55408C21.6225 6.40587 21.4227 6.3226 21.2143 6.3226ZM21.2143 18.9678H0.785714C0.57733 18.9678 0.377481 19.0511 0.230131 19.1993C0.0827806 19.3475 1.91693e-07 19.5485 1.91693e-07 19.7581V21.3388C1.91693e-07 21.5484 0.0827806 21.7494 0.230131 21.8976C0.377481 22.0458 0.57733 22.1291 0.785714 22.1291H21.2143C21.4227 22.1291 21.6225 22.0458 21.7699 21.8976C21.9172 21.7494 22 21.5484 22 21.3388V19.7581C22 19.5485 21.9172 19.3475 21.7699 19.1993C21.6225 19.0511 21.4227 18.9678 21.2143 18.9678Z" fill="black"/>
</svg>
