<svg width="24" height="24" viewBox="0 0 24 24" fill="none" xmlns="http://www.w3.org/2000/svg">
<g clip-path="url(#clip0_0_8)">
<path d="M10.0871 3C8.81709 3 7.68709 3.8 7.26709 5H1.08709V7H3.03709L0.0870901 14C-0.38291 16 1.08709 17 3.58709 17C6.08709 17 7.64709 16 7.08709 14L4.13709 7H7.25709C7.58709 7.85 8.23709 8.5 9.08709 8.83V20H0.0870901V22H20.0871V20H11.0871V8.82C11.9371 8.5 12.5871 7.85 12.9071 7H16.0371L13.0871 14C12.6171 16 14.0871 17 16.5871 17C19.0871 17 20.6471 16 20.0871 14L17.1371 7H19.0871V5H12.9171C12.4871 3.8 11.3571 3 10.0871 3ZM10.0871 5C10.3523 5 10.6067 5.10536 10.7942 5.29289C10.9817 5.48043 11.0871 5.73478 11.0871 6C11.0871 6.26522 10.9817 6.51957 10.7942 6.70711C10.6067 6.89464 10.3523 7 10.0871 7C9.82187 7 9.56752 6.89464 9.37998 6.70711C9.19245 6.51957 9.08709 6.26522 9.08709 6C9.08709 5.73478 9.19245 5.48043 9.37998 5.29289C9.56752 5.10536 9.82187 5 10.0871 5ZM3.58709 10.25L5.08709 14H2.08709L3.58709 10.25ZM16.5871 10.25L18.0871 14H15.0871L16.5871 10.25Z" fill="black"/>
</g>
<defs>
<clipPath id="clip0_0_8">
<rect width="24" height="24" fill="white"/>
</clipPath>
</defs>
</svg>
