<svg width="18" height="21" viewBox="0 0 18 21" fill="none" xmlns="http://www.w3.org/2000/svg">
<path d="M2 11.4386L3.5 7.14912H14.5L16 11.4386M14.5 16.2047C13.7 16.2047 13 15.5374 13 14.7749C13 14.0123 13.7 13.345 14.5 13.345C15.3 13.345 16 14.0123 16 14.7749C16 15.5374 15.3 16.2047 14.5 16.2047ZM3.5 16.2047C2.7 16.2047 2 15.5374 2 14.7749C2 14.0123 2.7 13.345 3.5 13.345C4.3 13.345 5 14.0123 5 14.7749C5 15.5374 4.3 16.2047 3.5 16.2047ZM15.9 6.67251C15.7 6.10058 15.1 5.7193 14.5 5.7193H3.5C2.8 5.7193 2.3 6.10058 2.1 6.67251L0 12.3918V20.0175C0 20.5895 0.4 20.9708 1 20.9708H2C2.6 20.9708 3 20.5895 3 20.0175V19.0643H15V20.0175C15 20.5895 15.4 20.9708 16 20.9708H17C17.6 20.9708 18 20.5895 18 20.0175V12.3918M5 0L9 4.28947L13 0H5Z" fill="black"/>
</svg>
