<svg width="21" height="21" viewBox="0 0 21 21" fill="none" xmlns="http://www.w3.org/2000/svg">
<path d="M15.75 8.75C15.5179 8.75 15.2954 8.65781 15.1313 8.49372C14.9672 8.32962 14.875 8.10706 14.875 7.875C14.875 7.64294 14.9672 7.42038 15.1313 7.25628C15.2954 7.09219 15.5179 7 15.75 7C15.9821 7 16.2046 7.09219 16.3687 7.25628C16.5328 7.42038 16.625 7.64294 16.625 7.875C16.625 8.10706 16.5328 8.32962 16.3687 8.49372C16.2046 8.65781 15.9821 8.75 15.75 8.75ZM10.5 8.75H5.25V4.375H10.5M17.2987 6.32625L17.3075 6.3175L14.0525 3.0625L13.125 3.99L14.9713 5.83625C14.1488 6.125 13.5625 6.93875 13.5625 7.875C13.5625 8.16227 13.6191 8.44672 13.729 8.71212C13.8389 8.97752 14.0001 9.21867 14.2032 9.4218C14.6134 9.83203 15.1698 10.0625 15.75 10.0625C16.065 10.0625 16.3538 9.9925 16.625 9.87875V16.1875C16.625 16.4196 16.5328 16.6421 16.3687 16.8062C16.2046 16.9703 15.9821 17.0625 15.75 17.0625C15.5179 17.0625 15.2954 16.9703 15.1313 16.8062C14.9672 16.6421 14.875 16.4196 14.875 16.1875V12.25C14.875 11.2788 14.0875 10.5 13.125 10.5H12.25V4.375C12.25 3.40375 11.4625 2.625 10.5 2.625H5.25C4.27875 2.625 3.5 3.40375 3.5 4.375V18.375H12.25V11.8125H13.5625V16.1875C13.5625 16.7677 13.793 17.3241 14.2032 17.7343C14.6134 18.1445 15.1698 18.375 15.75 18.375C16.0373 18.375 16.3217 18.3184 16.5871 18.2085C16.8525 18.0986 17.0937 17.9374 17.2968 17.7343C17.4999 17.5312 17.6611 17.29 17.771 17.0246C17.8809 16.7592 17.9375 16.4748 17.9375 16.1875V7.875C17.9375 7.27125 17.6925 6.72 17.2987 6.32625Z" fill="#767676"/>
</svg>
